<svg xmlns="http://www.w3.org/2000/svg" version="1.1" xmlns:xlink="http://www.w3.org/1999/xlink"  width="512" height="512" x="0" y="0" viewBox="0 0 60 60" style="enable-background:new 0 0 512 512" xml:space="preserve" class=""><g><path xmlns="http://www.w3.org/2000/svg" d="M46,26.281V14.889a2.744,2.744,0,0,0-1.336-2.368L24.416.385a2.8,2.8,0,0,0-2.84.005L1.332,12.522A2.746,2.746,0,0,0,0,14.889v23.22a2.746,2.746,0,0,0,1.336,2.369L21.582,52.612a2.8,2.8,0,0,0,2.843,0l3.381-2.027A16.989,16.989,0,1,0,46,26.281ZM22.6,2.109a.8.8,0,0,1,.8,0L43.57,14.2,23.46,26.253a.9.9,0,0,1-.913,0L2.429,14.2ZM2.367,38.765A.762.762,0,0,1,2,38.109V16.27L21.524,27.976a3,3,0,0,0,.476.2V50.532ZM24,50.531V28.175a2.9,2.9,0,0,0,.482-.2L44,16.27v9.781c-.333-.02-.662-.051-1-.051A16.952,16.952,0,0,0,27.013,48.724ZM43,58A15,15,0,1,1,58,43,15.017,15.017,0,0,1,43,58Z" fill="#ffc148" data-original="#000000" class=""></path><path xmlns="http://www.w3.org/2000/svg" d="M51,40H46V35a2,2,0,0,0-2-2H42a2,2,0,0,0-2,2v5H35a2,2,0,0,0-2,2v2a2,2,0,0,0,2,2h5v5a2,2,0,0,0,2,2h2a2,2,0,0,0,2-2V46h5a2,2,0,0,0,2-2V42A2,2,0,0,0,51,40Zm0,4H45a1,1,0,0,0-1,1v6H42V45a1,1,0,0,0-1-1H35V42h6a1,1,0,0,0,1-1V35h2v6a1,1,0,0,0,1,1l6,0Z" fill="#ffc148" data-original="#000000" class=""></path></g></svg>