<svg xmlns="http://www.w3.org/2000/svg" version="1.1" xmlns:xlink="http://www.w3.org/1999/xlink"  width="512" height="512" x="0" y="0" viewBox="0 0 48 48" style="enable-background:new 0 0 512 512" xml:space="preserve" class=""><g><path xmlns="http://www.w3.org/2000/svg" d="m12.136 47.438c6.501 0 11.789-5.288 11.789-11.789s-5.288-11.789-11.789-11.789-11.789 5.287-11.789 11.788 5.288 11.79 11.789 11.79zm0-21.579c5.397 0 9.789 4.392 9.789 9.789s-4.392 9.789-9.789 9.789-9.789-4.392-9.789-9.789 4.391-9.789 9.789-9.789zm23.728-25.728c-6.501 0-11.789 5.288-11.789 11.789s5.288 11.789 11.789 11.789 11.789-5.288 11.789-11.789-5.288-11.789-11.789-11.789zm0 21.578c-5.397 0-9.789-4.392-9.789-9.789s4.392-9.789 9.789-9.789 9.789 4.392 9.789 9.789-4.391 9.789-9.789 9.789zm-1.654-12.078c0 .668.758 1.232 1.654 1.232 2.015 0 3.654 1.45 3.654 3.232 0 1.475-1.128 2.708-2.654 3.096v.746c0 .553-.447 1-1 1s-1-.447-1-1v-.746c-1.526-.388-2.654-1.621-2.654-3.096 0-.553.447-1 1-1s1 .447 1 1c0 .669.758 1.234 1.654 1.234s1.654-.565 1.654-1.234c0-.668-.758-1.232-1.654-1.232-2.015 0-3.654-1.45-3.654-3.232 0-1.474 1.128-2.706 2.654-3.094v-.633c0-.553.447-1 1-1s1 .447 1 1v.633c1.526.388 2.654 1.62 2.654 3.094 0 .553-.447 1-1 1s-1-.447-1-1c0-.633-.682-1.166-1.515-1.222-.048.007-.09.028-.14.028s-.092-.021-.14-.028c-.831.056-1.513.589-1.513 1.222zm-33.555 13.361c0-10.503 7.991-19.172 18.213-20.254l-1.021-1.022c-.39-.391-.39-1.023.002-1.414.391-.389 1.023-.391 1.414.002l2.846 2.852c.39.391.39 1.023-.002 1.414l-2.852 2.846c-.195.194-.45.292-.706.292s-.513-.098-.708-.294c-.39-.391-.39-1.023.002-1.414l1.282-1.279c-9.239.953-16.47 8.783-16.47 18.271 0 .553-.447 1-1 1s-1-.447-1-1zm46.074 2.016c0 10.503-7.991 19.172-18.213 20.254l1.021 1.022c.39.391.39 1.023-.002 1.414-.195.194-.45.292-.706.292s-.513-.098-.708-.294l-2.846-2.852c-.39-.391-.39-1.023.001-1.414l2.852-2.848c.391-.389 1.024-.39 1.415.001.39.392.39 1.024-.001 1.415l-1.283 1.281c9.24-.954 16.471-8.784 16.471-18.272 0-.553.447-1 1-1s.999.448.999 1.001zm-37.153 12.862c.196-.368.303-.787.377-1.222h-1.108c-.553 0-1-.447-1-1s.447-1 1-1h1.247c0-.021.001-.042.001-.063.018-1.813.042-4.297 2.758-4.607 1.856-.219 2.859 1.279 3.125 2.099.17.525-.117 1.09-.643 1.26-.524.171-1.084-.114-1.257-.634-.049-.142-.328-.808-.998-.738-.817.094-.965.488-.985 2.641 0 .015 0 .029-.001.044h1.903c.553 0 1 .447 1 1s-.447 1-1 1h-2.005c-.092.726-.271 1.451-.632 2.128-.082.18-.215.362-.395.562h4.607c.553 0 1 .447 1 1s-.447 1-1 1h-6.725c-.601 0-.953-.359-1.084-.696-.299-.772.283-1.302 1.021-1.974.244-.225.7-.641.794-.8z" fill="#ffc148" data-original="#000000" class=""></path></g></svg>