<svg xmlns="http://www.w3.org/2000/svg" version="1.1" xmlns:xlink="http://www.w3.org/1999/xlink"  width="512" height="512" x="0" y="0" viewBox="0 0 64 64" style="enable-background:new 0 0 512 512" xml:space="preserve" class=""><g><path xmlns="http://www.w3.org/2000/svg" d="m61 22.2021-10.0441-7.2953v3.894h-23.81a6.8106 6.8106 0 0 0 -6.8027 6.8028v7.5517h6.8027v-7.5517h23.81v3.8937z" fill="#ffc148" data-original="#ef4538" class=""></path><path xmlns="http://www.w3.org/2000/svg" d="m3 41.7979 10.0441 7.2953v-3.894h23.81a6.8106 6.8106 0 0 0 6.8027-6.8028v-7.5517h-6.8031v7.5517h-23.81v-3.8937z" fill="#ffc148" data-original="#ef5451" class=""></path><path xmlns="http://www.w3.org/2000/svg" d="m61.5879 21.3926-10.044-7.2949a1.0006 1.0006 0 0 0 -1.5878.8095v2.8936h-22.81a7.8114 7.8114 0 0 0 -7.8027 7.8027v7.5518a1 1 0 0 0 1 1h6.8027a1 1 0 0 0 1-1v-6.5518h21.81v2.8936a1.0006 1.0006 0 0 0 1.5878.8095l10.044-7.2949a1.0012 1.0012 0 0 0 0-1.6191zm-9.6318 6.1426v-1.9317a1 1 0 0 0 -1-1h-23.81a1 1 0 0 0 -1 1v6.5518h-4.8023v-6.5518a5.81 5.81 0 0 1 5.8027-5.8027h23.81a1 1 0 0 0 1-1v-1.9317l7.3422 5.333z" fill="#ffc148" data-original="#000000" class=""></path><path xmlns="http://www.w3.org/2000/svg" d="m43.6563 29.8447h-6.8028a1 1 0 0 0 -1 1v6.5518h-21.81v-2.8936a1.0006 1.0006 0 0 0 -1.5878-.8095l-10.0436 7.2949a1.0012 1.0012 0 0 0 0 1.6191l10.044 7.2949a1.0006 1.0006 0 0 0 1.5878-.8095v-2.8936h22.81a7.8115 7.8115 0 0 0 7.8028-7.8027v-7.5518a1 1 0 0 0 -1.0004-1zm-1 8.5518a5.81 5.81 0 0 1 -5.8028 5.8027h-23.81a1 1 0 0 0 -1 1v1.9317l-7.3422-5.333 7.3422-5.3331v1.9317a1 1 0 0 0 1 1h23.81a1 1 0 0 0 1-1v-6.5518h4.8028z" fill="#ffc148" data-original="#000000" class=""></path></g></svg>