<svg xmlns="http://www.w3.org/2000/svg" version="1.1" xmlns:xlink="http://www.w3.org/1999/xlink" width="512" height="512" x="0" y="0" viewBox="0 0 512 512" style="enable-background:new 0 0 512 512" xml:space="preserve" class=""><g><path xmlns="http://www.w3.org/2000/svg" d="m368 42.667969h-26.667969v-21.335938c0-11.773437-9.535156-21.332031-21.332031-21.332031s-21.332031 9.558594-21.332031 21.332031v21.335938h-170.667969v-21.335938c0-11.773437-9.535156-21.332031-21.332031-21.332031s-21.335938 9.558594-21.335938 21.332031v21.335938h-26.664062c-32.363281 0-58.667969 26.300781-58.667969 58.664062v240c0 35.285157 28.714844 64 64 64h106.667969c11.796875 0 21.332031-9.554687 21.332031-21.332031s-9.535156-21.332031-21.332031-21.332031h-106.667969c-11.777344 0-21.332031-9.578125-21.332031-21.335938v-170.664062h341.332031c0 11.773437 9.535156 21.332031 21.332031 21.332031s21.335938-9.558594 21.335938-21.332031v-69.335938c0-32.363281-26.304688-58.664062-58.667969-58.664062zm0 0" fill="#ffc148" data-original="#000000" class=""></path><path xmlns="http://www.w3.org/2000/svg" d="m373.332031 234.667969c-76.457031 0-138.664062 62.207031-138.664062 138.664062 0 76.460938 62.207031 138.667969 138.664062 138.667969 76.460938 0 138.667969-62.207031 138.667969-138.667969 0-76.457031-62.207031-138.664062-138.667969-138.664062zm64.128907 115.304687-69.332032 80c-3.882812 4.480469-9.453125 7.125-15.359375 7.359375-.257812 0-.511719 0-.769531 0-5.652344 0-11.070312-2.238281-15.082031-6.25l-37.332031-37.332031c-8.34375-8.34375-8.34375-21.824219 0-30.164062 8.339843-8.34375 21.820312-8.34375 30.164062 0l21.140625 21.140624 54.316406-62.679687c7.722657-8.917969 21.203125-9.832031 30.101563-2.152344 8.894531 7.699219 9.855468 21.183594 2.152344 30.078125zm0 0" fill="#ffc148" data-original="#000000" class=""></path></g></svg>